<svg width="141" height="27" viewBox="0 0 141 27" fill="none" xmlns="http://www.w3.org/2000/svg">
<path d="M87.125 20.2273C86.5758 20.2273 86.1046 20.0355 85.7116 19.652C85.3234 19.2637 85.1316 18.7926 85.1364 18.2386C85.1316 17.6989 85.3234 17.2372 85.7116 16.8537C86.1046 16.4702 86.5758 16.2784 87.125 16.2784C87.6458 16.2784 88.1051 16.4702 88.5028 16.8537C88.9053 17.2372 89.1089 17.6989 89.1136 18.2386C89.1089 18.608 89.0118 18.9441 88.8224 19.2472C88.6378 19.5455 88.3963 19.7846 88.098 19.9645C87.7997 20.1397 87.4754 20.2273 87.125 20.2273ZM95.1932 20.142C94.4167 20.142 93.7017 19.9384 93.0483 19.5312C92.3996 19.1241 91.8788 18.5062 91.4858 17.6776C91.0975 16.849 90.9034 15.8049 90.9034 14.5455C90.9034 13.2292 91.107 12.1591 91.5142 11.3352C91.9261 10.5114 92.4564 9.90767 93.1051 9.52415C93.7585 9.14062 94.4451 8.94886 95.1648 8.94886C95.7045 8.94886 96.178 9.04356 96.5852 9.23295C96.9924 9.41761 97.3333 9.66619 97.608 9.97869C97.8826 10.2865 98.0909 10.625 98.233 10.9943H98.2898V5.45455H102.21V20H98.3182V18.2102H98.233C98.0814 18.5795 97.8636 18.911 97.5795 19.2045C97.3002 19.4934 96.9593 19.723 96.5568 19.8935C96.1591 20.0592 95.7045 20.142 95.1932 20.142ZM96.642 17.1307C97.0019 17.1307 97.3097 17.0265 97.5653 16.8182C97.8258 16.6051 98.0246 16.3068 98.1619 15.9233C98.304 15.535 98.375 15.0758 98.375 14.5455C98.375 14.0057 98.304 13.544 98.1619 13.1605C98.0246 12.7723 97.8258 12.4763 97.5653 12.2727C97.3097 12.0644 97.0019 11.9602 96.642 11.9602C96.2822 11.9602 95.9744 12.0644 95.7188 12.2727C95.4678 12.4763 95.2737 12.7723 95.1364 13.1605C95.0038 13.544 94.9375 14.0057 94.9375 14.5455C94.9375 15.0852 95.0038 15.5492 95.1364 15.9375C95.2737 16.321 95.4678 16.617 95.7188 16.8253C95.9744 17.0289 96.2822 17.1307 96.642 17.1307ZM109.362 20.1989C108.197 20.1989 107.194 19.9763 106.351 19.5312C105.513 19.0814 104.866 18.4375 104.412 17.5994C103.962 16.7566 103.737 15.7481 103.737 14.5739C103.737 13.447 103.964 12.4621 104.419 11.6193C104.874 10.7765 105.515 10.1207 106.344 9.65199C107.172 9.18324 108.15 8.94886 109.277 8.94886C110.101 8.94886 110.847 9.0767 111.514 9.33239C112.182 9.58807 112.752 9.95975 113.226 10.4474C113.699 10.9304 114.064 11.5175 114.32 12.2088C114.575 12.9001 114.703 13.679 114.703 14.5455V15.4545H104.959V13.2955H111.095C111.09 12.983 111.01 12.7083 110.854 12.4716C110.702 12.2301 110.496 12.0431 110.236 11.9105C109.98 11.7732 109.689 11.7045 109.362 11.7045C109.045 11.7045 108.754 11.7732 108.489 11.9105C108.223 12.0431 108.01 12.2277 107.849 12.4645C107.693 12.7012 107.61 12.9782 107.601 13.2955V15.625C107.601 15.9754 107.674 16.2879 107.821 16.5625C107.968 16.8371 108.179 17.0526 108.453 17.2088C108.728 17.3651 109.059 17.4432 109.447 17.4432C109.717 17.4432 109.964 17.4053 110.186 17.3295C110.413 17.2538 110.607 17.1449 110.768 17.0028C110.929 16.8561 111.048 16.6809 111.124 16.4773H114.703C114.58 17.2348 114.289 17.893 113.83 18.4517C113.37 19.0057 112.762 19.4366 112.004 19.7443C111.251 20.0473 110.371 20.1989 109.362 20.1989ZM127.024 9.09091L123.359 20H118.814L115.149 9.09091H119.268L121.029 16.3068H121.143L122.904 9.09091H127.024Z" fill="#FFE9A5"/>
<path d="M21.7784 10C21.7405 9.52652 21.563 9.1572 21.2457 8.89205C20.9332 8.62689 20.4574 8.49432 19.8182 8.49432C19.411 8.49432 19.0772 8.54403 18.8168 8.64347C18.5611 8.73816 18.3717 8.86837 18.2486 9.03409C18.1255 9.19981 18.0616 9.3892 18.0568 9.60227C18.0473 9.77746 18.0781 9.93608 18.1491 10.0781C18.2249 10.2154 18.3433 10.3409 18.5043 10.4545C18.6652 10.5634 18.8712 10.6629 19.1222 10.7528C19.3731 10.8428 19.6714 10.9233 20.017 10.9943L21.2102 11.25C22.0152 11.4205 22.7041 11.6454 23.277 11.9247C23.8499 12.2041 24.3187 12.5331 24.6832 12.9119C25.0478 13.286 25.3153 13.7074 25.4858 14.1761C25.661 14.6449 25.7509 15.1562 25.7557 15.7102C25.7509 16.6667 25.5118 17.4763 25.0384 18.1392C24.5649 18.8021 23.8878 19.3063 23.0071 19.652C22.1312 19.9976 21.0777 20.1705 19.8466 20.1705C18.5824 20.1705 17.4792 19.9834 16.5369 19.6094C15.5994 19.2353 14.8703 18.66 14.3494 17.8835C13.8333 17.1023 13.5729 16.1032 13.5682 14.8864H17.3182C17.3419 15.3314 17.4531 15.7055 17.652 16.0085C17.8509 16.3116 18.1302 16.5412 18.4901 16.6974C18.8546 16.8537 19.2879 16.9318 19.7898 16.9318C20.2112 16.9318 20.5639 16.8797 20.848 16.7756C21.1321 16.6714 21.3475 16.527 21.4943 16.3423C21.6411 16.1577 21.7169 15.947 21.7216 15.7102C21.7169 15.4877 21.6435 15.2936 21.5014 15.1278C21.3641 14.9574 21.1368 14.8059 20.8196 14.6733C20.5024 14.536 20.0739 14.4081 19.5341 14.2898L18.0852 13.9773C16.7973 13.6979 15.7817 13.2315 15.0384 12.5781C14.2997 11.92 13.9328 11.0227 13.9375 9.88636C13.9328 8.96307 14.179 8.15578 14.6761 7.46449C15.178 6.76847 15.8717 6.22633 16.7571 5.83807C17.6473 5.44981 18.6676 5.25568 19.8182 5.25568C20.9924 5.25568 22.008 5.45218 22.8651 5.84517C23.7221 6.23816 24.3826 6.79214 24.8466 7.5071C25.3153 8.21733 25.5521 9.0483 25.5568 10H21.7784ZM31.2351 13.8636V20H27.3146V5.45455H31.093V11.1648H31.2067C31.4529 10.4687 31.8625 9.92661 32.4354 9.53835C33.0083 9.14536 33.6972 8.94886 34.5021 8.94886C35.2739 8.94886 35.9439 9.12405 36.5121 9.47443C37.085 9.82481 37.5277 10.3078 37.8402 10.9233C38.1574 11.5388 38.3137 12.2443 38.3089 13.0398V20H34.3885V13.8636C34.3932 13.3239 34.2583 12.9001 33.9837 12.5923C33.7138 12.2846 33.3279 12.1307 32.826 12.1307C32.5088 12.1307 32.2294 12.2017 31.9879 12.3438C31.7512 12.4811 31.5665 12.6799 31.4339 12.9403C31.3061 13.196 31.2398 13.5038 31.2351 13.8636ZM43.2841 20.1705C42.5881 20.1705 41.9725 20.0568 41.4375 19.8295C40.9072 19.5975 40.4905 19.2472 40.1875 18.7784C39.8845 18.3097 39.733 17.7131 39.733 16.9886C39.733 16.392 39.8348 15.883 40.0384 15.4616C40.242 15.0355 40.526 14.6875 40.8906 14.4176C41.2552 14.1477 41.679 13.9418 42.1619 13.7997C42.6496 13.6577 43.1752 13.5653 43.7386 13.5227C44.3494 13.4754 44.8395 13.4186 45.2088 13.3523C45.5829 13.2812 45.8527 13.1842 46.0185 13.0611C46.1842 12.9332 46.267 12.7652 46.267 12.5568V12.5284C46.267 12.2443 46.1581 12.0265 45.9403 11.875C45.7225 11.7235 45.4432 11.6477 45.1023 11.6477C44.7282 11.6477 44.4228 11.7306 44.1861 11.8963C43.9541 12.0573 43.8144 12.3059 43.767 12.642H40.1591C40.2064 11.9792 40.4171 11.3684 40.7912 10.8097C41.17 10.2462 41.7216 9.7964 42.446 9.46023C43.1705 9.11932 44.0748 8.94886 45.1591 8.94886C45.9403 8.94886 46.6411 9.04119 47.2614 9.22585C47.8816 9.40578 48.4096 9.65909 48.8452 9.9858C49.2808 10.3078 49.6122 10.6866 49.8395 11.1222C50.0715 11.553 50.1875 12.0218 50.1875 12.5284V20H46.5227V18.4659H46.4375C46.2197 18.8731 45.9545 19.2022 45.642 19.4531C45.3343 19.7041 44.9815 19.8864 44.5838 20C44.1908 20.1136 43.7576 20.1705 43.2841 20.1705ZM44.5625 17.6989C44.8608 17.6989 45.1402 17.6373 45.4006 17.5142C45.6657 17.3911 45.8812 17.2135 46.0469 16.9815C46.2126 16.7495 46.2955 16.4678 46.2955 16.1364V15.2273C46.1913 15.2699 46.08 15.3101 45.9616 15.348C45.848 15.3859 45.7249 15.4214 45.5923 15.4545C45.4645 15.4877 45.3272 15.5185 45.1804 15.5469C45.0384 15.5753 44.8892 15.6013 44.733 15.625C44.4299 15.6723 44.1813 15.7505 43.9872 15.8594C43.7978 15.9635 43.6558 16.0938 43.5611 16.25C43.4711 16.4015 43.4261 16.572 43.4261 16.7614C43.4261 17.0644 43.5327 17.2964 43.7457 17.4574C43.9588 17.6184 44.2311 17.6989 44.5625 17.6989ZM55.9812 13.8636V20H52.0607V9.09091H55.7823V11.1648H55.896C56.1327 10.4735 56.5494 9.93134 57.146 9.53835C57.7473 9.14536 58.448 8.94886 59.2482 8.94886C60.02 8.94886 60.69 9.12642 61.2582 9.48153C61.8311 9.83191 62.2738 10.3149 62.5863 10.9304C62.9035 11.5459 63.0598 12.2491 63.055 13.0398V20H59.1346V13.8636C59.1393 13.3239 59.002 12.9001 58.7227 12.5923C58.448 12.2846 58.0645 12.1307 57.5721 12.1307C57.2501 12.1307 56.9684 12.2017 56.7269 12.3438C56.4902 12.4811 56.3079 12.6799 56.18 12.9403C56.0522 13.196 55.9859 13.5038 55.9812 13.8636ZM71.4961 9.09091V11.9318H64.3086V9.09091H71.4961ZM65.7006 6.47727H69.6211V16.4915C69.6211 16.643 69.6471 16.7708 69.6992 16.875C69.7513 16.9744 69.8318 17.0502 69.9407 17.1023C70.0496 17.1496 70.1893 17.1733 70.3597 17.1733C70.4781 17.1733 70.6154 17.1591 70.7717 17.1307C70.9326 17.1023 71.051 17.0786 71.1268 17.0597L71.695 19.8153C71.5198 19.8674 71.2688 19.9313 70.9421 20.0071C70.6201 20.0829 70.2366 20.1326 69.7915 20.1562C68.8919 20.2036 68.1367 20.1113 67.5259 19.8793C66.9151 19.6425 66.4558 19.2708 66.1481 18.7642C65.8403 18.2576 65.6912 17.6231 65.7006 16.8608V6.47727ZM76.1357 20.1705C75.4396 20.1705 74.8241 20.0568 74.2891 19.8295C73.7588 19.5975 73.3421 19.2472 73.0391 18.7784C72.736 18.3097 72.5845 17.7131 72.5845 16.9886C72.5845 16.392 72.6863 15.883 72.8899 15.4616C73.0935 15.0355 73.3776 14.6875 73.7422 14.4176C74.1068 14.1477 74.5305 13.9418 75.0135 13.7997C75.5012 13.6577 76.0268 13.5653 76.5902 13.5227C77.201 13.4754 77.6911 13.4186 78.0604 13.3523C78.4344 13.2812 78.7043 13.1842 78.87 13.0611C79.0357 12.9332 79.1186 12.7652 79.1186 12.5568V12.5284C79.1186 12.2443 79.0097 12.0265 78.7919 11.875C78.5741 11.7235 78.2947 11.6477 77.9538 11.6477C77.5798 11.6477 77.2744 11.7306 77.0376 11.8963C76.8056 12.0573 76.666 12.3059 76.6186 12.642H73.0107C73.058 11.9792 73.2687 11.3684 73.6428 10.8097C74.0215 10.2462 74.5732 9.7964 75.2976 9.46023C76.022 9.11932 76.9264 8.94886 78.0107 8.94886C78.7919 8.94886 79.4927 9.04119 80.1129 9.22585C80.7332 9.40578 81.2611 9.65909 81.6967 9.9858C82.1323 10.3078 82.4638 10.6866 82.6911 11.1222C82.9231 11.553 83.0391 12.0218 83.0391 12.5284V20H79.3743V18.4659H79.2891C79.0713 18.8731 78.8061 19.2022 78.4936 19.4531C78.1858 19.7041 77.8331 19.8864 77.4354 20C77.0424 20.1136 76.6091 20.1705 76.1357 20.1705ZM77.4141 17.6989C77.7124 17.6989 77.9917 17.6373 78.2521 17.5142C78.5173 17.3911 78.7327 17.2135 78.8984 16.9815C79.0642 16.7495 79.147 16.4678 79.147 16.1364V15.2273C79.0429 15.2699 78.9316 15.3101 78.8132 15.348C78.6996 15.3859 78.5765 15.4214 78.4439 15.4545C78.3161 15.4877 78.1787 15.5185 78.032 15.5469C77.8899 15.5753 77.7408 15.6013 77.5845 15.625C77.2815 15.6723 77.0329 15.7505 76.8388 15.8594C76.6494 15.9635 76.5073 16.0938 76.4126 16.25C76.3227 16.4015 76.2777 16.572 76.2777 16.7614C76.2777 17.0644 76.3842 17.2964 76.5973 17.4574C76.8104 17.6184 77.0826 17.6989 77.4141 17.6989Z" fill="white"/>
</svg>
